<?xml version="1.0" encoding="utf-8"?>
<!-- Generator: Adobe Illustrator 24.0.0, SVG Export Plug-In . SVG Version: 6.00 Build 0)  -->
<svg version="1.1" id="Layer_1" xmlns="http://www.w3.org/2000/svg" xmlns:xlink="http://www.w3.org/1999/xlink" x="0px" y="0px"
	 viewBox="0 0 612 792" style="enable-background:new 0 0 612 792;" xml:space="preserve">
<style type="text/css">
	.st0{fill:#FFFFFF;}
</style>
<g>
	<g>
		<path class="st0" d="M310.28,606.96c-56.76,0-113.52,0-170.28,0c0-54.72,0-109.44,0-164.16c0.08,0.46,0.21,0.92,0.23,1.38
			c0.36,8.84,1.58,17.58,3.47,26.21c7.09,32.44,22.99,59.88,46.99,82.69c15.66,14.88,33.58,26.35,53.31,35.02
			c7.43,3.26,15.16,4.36,23.14,2.19c6.8-1.85,12.71-5.38,18.07-9.83c6.15-5.11,12.18-10.35,18.23-15.58
			c4.77-4.11,9.74-7.9,15.49-10.57c6.69-3.11,13.67-4.43,20.98-3.04c3.16,0.6,6.25,1.6,9.32,2.57c1.11,0.35,1.62,0.18,1.85-0.94
			c0.28-1.36,0.55-2.74,0.95-4.07c0.34-1.14-0.17-1.57-1.13-1.91c-11.67-4.23-23.43-4.9-35.32-1.01
			c-8.65,2.83-16.24,7.59-23.48,12.97c-7.06,5.24-14.06,10.56-21.24,15.62c-4.83,3.39-10.23,5.74-16.25,5.75
			c-9,0.02-15.66-4.76-21.38-11.17c-0.21-0.24-0.19-0.92-0.01-1.24c2.69-4.62,6.34-8.3,10.98-10.97c0.46-0.27,1.07-0.28,1.79-0.46
			c0,0.73,0,1.21,0,1.68c0.02,4.84,0.02,9.68,0.07,14.52c0,0.44,0.23,1.09,0.56,1.28c1.46,0.85,3.06,1.27,5.08,1.12
			c0-1.55,0-3.06,0-4.57c-0.01-4.84-0.06-9.68-0.02-14.51c0.02-2.28,0.26-2.39,2.5-2.84c1.15-0.23,1.55,0.26,1.69,1.23
			c0.05,0.31,0.06,0.64,0.06,0.96c-0.01,4.92-0.03,9.84-0.04,14.76c0,1.2-0.03,2.4,0.02,3.59c0.04,1.01,0.35,1.86,1.65,1.59
			c1.05-0.22,2.09-0.48,3.13-0.73c0.69-0.17,0.91-0.6,0.91-1.31c0.02-6.16,0.05-12.31,0.14-18.47c0.01-0.61,0.21-1.48,0.64-1.79
			c1.6-1.13,4.56,0.41,4.59,2.35c0.07,4.8,0.08,9.59,0.13,14.39c0,0.51-0.03,1.06,0.13,1.52c0.08,0.23,0.69,0.52,0.86,0.43
			c1.45-0.83,2.88-1.7,4.25-2.65c0.28-0.19,0.42-0.77,0.42-1.17c0-3.2-0.07-6.39-0.06-9.59c0-0.81,0.21-1.62,0.34-2.62
			c0.8,0.33,1.43,0.48,1.94,0.82c1.96,1.3,3.86,2.68,5.82,3.99c0.33,0.22,0.97,0.44,1.22,0.27c1.41-0.94,2.75-2,4.1-3.01
			c-0.25-0.49-0.34-0.77-0.51-0.98c-0.43-0.53-0.87-1.05-1.34-1.53c-6.6-6.87-14.59-10.71-24.19-11.06
			c-6.87-0.25-13.51,0.97-20.04,2.96c-1.79,0.54-3.35,0.32-4.9-0.65c-9.62-5.98-18.46-12.95-26.17-21.26
			c-24.01-25.87-34.94-56.63-34.04-91.77c0.28-11.04,2.22-21.83,5.34-32.41c7.33-24.84,20.91-45.61,40.82-62.16
			c12.72-10.57,27.16-18.04,42.9-23c1.63-0.51,2.43-1.31,2.64-2.98c0.93-7.4,2.21-14.78,2.83-22.2c0.89-10.75,1.44-21.52,1.9-32.3
			c0.38-8.86,0.46-17.74-0.44-26.59c-0.26-2.53-0.23-2.54-2.66-2.87c-0.2-0.03-0.4-0.06-0.59-0.08c-3.4-0.35-4.36-1.33-4.62-4.75
			c-0.02-0.28-0.03-0.56-0.03-0.84c0.01-5.24,0.01-10.48,0.05-15.72c0.02-3.18,1.44-4.67,4.62-4.93c0.56-0.05,1.12-0.01,1.68-0.04
			c1.75-0.07,3.52-0.03,5.26-0.26c3.86-0.52,6.55-3.59,6.77-7.54c0.22-3.93-2.19-7.35-5.86-8.31c-0.49-0.13-0.98-0.26-1.46-0.39
			c66.19,0,132.38,0,198.58,0c0,140.32,0,280.64,0,420.96c-52.28,0-104.56,0-156.85,0c0.43-0.09,0.85-0.19,1.29-0.26
			c3.49-0.58,7.06-0.88,10.47-1.79c9.12-2.44,17.39-6.55,24.13-13.34c5.49-5.52,9.03-12.24,11.75-19.44
			c3.41-9.03,6.72-18.1,10.11-27.13c0.77-2.04,1.54-2.2,3.09-0.71c2.73,2.64,5.39,5.35,8.14,7.97c1.68,1.59,4.75,1.38,6.38-0.36
			c-0.29-0.32-0.56-0.66-0.87-0.97c-3.49-3.52-6.99-7.03-10.49-10.55c-2.42-2.43-2.93-2.58-0.3-6.1c1.25-1.68,1.94-1.67,3.42-0.18
			c4.55,4.56,9.1,9.11,13.65,13.66c1.66,1.66,2.06,1.69,3.99,0.37c1.65-1.13,1.7-1.66,0.31-3.05c-4.89-4.89-9.78-9.78-14.66-14.68
			c-0.37-0.37-0.72-0.75-1.04-1.16c-0.51-0.65-0.53-1.36,0.06-1.96c0.89-0.91,1.82-1.79,2.76-2.65c0.75-0.68,1.38-0.57,2.13,0.18
			c4.99,5.02,10.03,9.99,15.05,14.97c2.12,2.1,2.68,1.99,4.1-0.67c0.51-0.96,0.52-1.65-0.34-2.49c-4.61-4.55-9.15-9.17-13.71-13.77
			c-0.42-0.42-0.86-0.84-1.2-1.32c-0.44-0.62-0.5-1.3,0.22-1.78c1.12-0.75,2.23-1.52,3.43-2.12c0.39-0.19,1.22-0.05,1.55,0.27
			c2.33,2.19,4.59,4.45,6.86,6.7c1.9,1.88,3.78,3.79,5.69,5.67c0.42,0.41,0.95,0.72,1.37-0.01c1.32-2.28,0.93-4.82-0.99-6.65
			c-1.12-1.08-2.26-2.15-3.36-3.25c-1.38-1.39-2.77-2.77-4.09-4.22c-1.06-1.16-0.94-1.77,0.4-2.54c0.65-0.38,1.34-0.72,2.04-1.01
			c1.95-0.81,3.9-1.62,5.88-2.38c1.06-0.41,1.62-1.02,1.55-2.23c-0.08-1.4-0.06-2.8-0.01-4.2c0.04-1.12-0.51-1.58-1.54-1.41
			c-1.14,0.18-2.26,0.46-3.38,0.73c-7.38,1.72-14.75,3.47-21.73,6.51c-14.35,6.25-24.12,16.67-28.52,31.79
			c-2.38,8.19-4.39,16.49-6.57,24.74c-0.22,0.82-0.26,2.03-1.34,1.97c-0.63-0.04-1.34-0.86-1.77-1.5c-1.9-2.81-3.7-5.69-5.58-8.52
			c-0.36-0.55-0.86-1.26-1.4-1.38c-1.62-0.35-3.29-0.62-5.09,0.05c0.52,0.92,0.97,1.8,1.5,2.63c3.01,4.67,6.01,9.34,9.06,13.98
			c0.83,1.26,0.88,2.41-0.01,3.64c-1.26,1.75-2.47,3.54-3.73,5.29c-0.9,1.25-1.56,1.26-2.55,0.09c-0.21-0.24-0.38-0.51-0.55-0.78
			c-2.31-3.65-4.6-7.3-6.91-10.94c-2.36-3.71-4.73-7.41-7.13-11.09c-0.24-0.37-0.78-0.82-1.15-0.78c-1.44,0.13-2.81,0.57-3.8,1.84
			c0.2,0.35,0.38,0.7,0.59,1.03c4.86,7.75,9.73,15.49,14.59,23.25c0.36,0.57,0.67,1.18,0.96,1.79c0.34,0.7,0.22,1.32-0.44,1.78
			c-1.73,1.21-3.4,2.53-5.22,3.59c-2.42,1.41-2.79,1.19-4.23-1.27c-4.77-8.17-9.57-16.33-14.36-24.5c-0.52-0.89-1.17-1.3-2.13-0.6
			c-0.68,0.49-1.37,0.95-2.03,1.46c-0.53,0.41-0.55,0.88-0.2,1.46c0.81,1.33,1.55,2.7,2.34,4.05c4.04,6.84,8.1,13.68,12.14,20.52
			c1.12,1.89,0.79,2.69-1.35,3.25c-2.28,0.59-4.55,1.17-6.84,1.74c-2.26,0.56-3.09,0.15-4.16-1.88c-3.41-6.51-6.84-13.01-10.28-19.5
			c-0.36-0.69-0.87-1.3-1.36-2.02c-0.77,0.63-1.45,1.12-2.06,1.69c-1.25,1.18-1.34,1.73-0.56,3.22c2.88,5.48,5.79,10.94,8.63,16.44
			c0.32,0.61,0.46,1.53,0.22,2.13c-0.14,0.35-1.2,0.51-1.83,0.45c-7.68-0.66-14.84-2.94-21.36-7.1c-2.7-1.72-2.7-1.72-5.6-0.24
			c-0.14,0.07-0.29,0.14-0.43,0.21c-2.3,1.1-2.36,1.46-0.37,2.96c7.75,5.85,16.44,9.59,25.96,11.38
			C305.37,606.38,307.83,606.62,310.28,606.96z M372.77,562.42c0.49,0.21,0.66,0.3,0.84,0.37c0.19,0.07,0.37,0.14,0.57,0.18
			c9.68,2.03,19.42,2.92,29.25,1.42c7.1-1.08,13.33-4.03,18.25-9.44c4.28-4.71,6.55-10.44,8.22-16.46c2.61-9.4,3-19.07,3.29-28.72
			c0.3-10.07,0.22-20.15,0.31-30.23c0-0.52,0.01-1.04,0.09-1.55c0.37-2.35,0.91-2.81,3.31-2.81c3.96-0.01,7.91,0.02,11.87-0.02
			c2.16-0.02,3.76-2.2,3.26-4.48c-0.88-0.07-1.79-0.19-2.69-0.2c-4.24-0.03-8.47,0-12.71-0.03c-1.92-0.01-2.62-0.76-2.52-2.66
			c0.04-0.83,0.14-1.67,0.31-2.49c0.5-2.34,0.52-2.37,2.87-2.38c5.16-0.03,10.31-0.02,15.47-0.03c2.57,0,3.16-0.65,3.08-3.22
			c-0.03-1.01-0.5-1.45-1.47-1.47c-0.96-0.02-1.92-0.08-2.87-0.09c-4.59-0.04-9.19-0.07-13.78-0.12c-1.51-0.01-2.4-0.54-2.28-1.5
			c0.2-1.69,0.54-3.37,0.96-5.01c0.09-0.35,0.78-0.76,1.21-0.79c2.15-0.11,4.31-0.13,6.47-0.14c3.4-0.02,6.79,0.03,10.19-0.03
			c0.67-0.01,1.81-0.25,1.91-0.6c0.3-1.11,0.41-2.38,0.15-3.48c-0.11-0.45-1.34-0.88-2.08-0.9c-3.47-0.09-6.95-0.04-10.43-0.04
			c-1.28,0-2.56,0.02-3.84-0.05c-2.14-0.12-2.62-0.66-2.09-2.73c0.88-3.42,0.66-4.15,4.86-4.08c3.36,0.06,6.71,0.05,10.07-0.02
			c0.62-0.01,1.59-0.34,1.79-0.79c0.76-1.71-0.9-3.95-2.77-3.97c-2.95-0.03-5.91-0.03-8.86-0.14c-1.57-0.06-1.78-0.37-1.39-1.87
			c1.26-4.88,3.87-9.08,6.77-13.1c0.97-1.34,1.66-1.25,2.76,0.27c1.64,2.26,3.33,4.52,4.69,6.95c5.62,10.04,7.69,20.79,6.14,32.23
			c-0.86,6.35-2.61,12.41-5.63,18.07c-3.56,6.67-8.56,12.01-14.91,16.09c-1.27,0.81-1.97,1.81-1.84,3.35
			c0.11,1.19,0.15,2.39,0.29,3.58c0.14,1.14,0.44,1.28,1.5,0.82c10.99-4.77,19.48-12.18,24.68-23.16c5.8-12.25,7.57-25.06,5.5-38.4
			c-1.38-8.87-4.9-16.88-10.06-24.22c-0.98-1.4-1.77-3.1-2.09-4.77c-1.7-9.08-4.2-17.93-7.45-26.57
			c-8.12-21.61-20-40.85-36.32-57.24c-11.5-11.55-24.53-21.09-38.89-28.76c-4.88-2.61-10-4.79-15.04-7.1
			c-1.72-0.79-2.66-1.97-2.56-3.9c0.02-0.32,0.01-0.64-0.01-0.96c-0.38-10.1-0.77-20.21-1.14-30.31c-0.12-3.24,0.04-6.5-0.38-9.7
			c-0.33-2.5,0.34-4.25,2.18-5.8c2.18-1.85,3.87-4.16,4.55-6.91c0.82-3.35,1.57-6.8,1.69-10.23c0.19-5.5-0.2-11.02-0.27-16.54
			c-0.13-9.88-8.51-17.86-16.88-18.78c-3.24-0.36-6.54-0.24-9.81-0.21c-4.36,0.04-7.41,3.32-7.37,7.75c0.04,4.5,3.17,7.69,7.58,7.72
			c1.84,0.01,3.68-0.01,5.51,0.04c2.8,0.09,4.37,1.17,5,3.6c0.4,1.54,0.79,3.14,0.77,4.71c-0.04,4.79-0.22,9.59-0.47,14.38
			c-0.14,2.67-1.16,3.7-3.82,4.31c-0.74,0.17-1.49,0.28-2.24,0.37c-0.99,0.12-1.47,0.64-1.55,1.63c-0.21,2.67-0.67,5.33-0.66,7.99
			c0.02,8.59,0.08,17.19,0.34,25.78c0.2,6.51,0.62,13.01,1.13,19.5c0.49,6.25,1.09,12.49,1.88,18.71c0.58,4.54,1.56,9.03,2.34,13.54
			c0.14,0.79,0.53,1.25,1.29,1.54c1.2,0.44,2.36,0.98,3.53,1.49c30.96,13.49,53.33,35.72,67.31,66.42
			c4.91,10.78,7.92,22.13,9.65,33.83c0.49,3.29,0.51,6.36-1.84,9.02c-0.23,0.26-0.38,0.61-0.54,0.93
			c-4.16,7.87-5.98,16.41-6.65,25.17c-0.5,6.53-0.64,13.1-0.62,19.65c0.02,9.07,0.32,18.14,0.52,27.21c0.2,8.97-0.3,17.9-1.7,26.76
			c-0.82,5.19-2.36,10.17-5,14.77c-3.95,6.86-10.17,10.64-17.44,13c-6.69,2.17-13.52,2-20.38,1.06c-0.67-0.09-1.08,0-1.31,0.64
			C373.8,559.5,373.31,560.91,372.77,562.42z M249.32,419.22c-10.97-0.02-19.89,8.76-20.08,19.44c-0.21,11.61,9.25,20.5,19.95,20.45
			c11.04-0.05,19.99-8.83,20.01-19.77C269.22,428.11,260.45,419.24,249.32,419.22z M241.66,366.53c0,9.93,7.96,17.91,17.86,17.92
			c9.88,0.01,18.18-8.13,17.92-18.34c-0.24-9.68-8.01-17.52-17.87-17.52C249.51,348.58,241.67,356.44,241.66,366.53z M287.68,486.69
			c0.01-5.91-4.41-10.46-10.15-10.47c-5.74-0.01-10.37,4.53-10.36,10.16c0.01,5.88,4.51,10.36,10.42,10.36
			C283.09,496.73,287.67,492.17,287.68,486.69z M305.31,435.38c5.66,0,9.77-4.15,9.79-9.87c0.02-5.43-4.36-9.8-9.83-9.8
			c-5.67-0.01-10.08,4.37-10.08,9.97C295.2,431.28,299.48,435.38,305.31,435.38z"/>
		<path d="M274.06,186c0.49,0.13,0.98,0.26,1.46,0.39c3.67,0.97,6.08,4.38,5.86,8.31c-0.22,3.95-2.91,7.03-6.77,7.54
			c-1.73,0.23-3.5,0.19-5.26,0.26c-0.56,0.02-1.12-0.01-1.68,0.04c-3.18,0.26-4.6,1.75-4.62,4.93c-0.04,5.24-0.04,10.48-0.05,15.72
			c0,0.28,0.01,0.56,0.03,0.84c0.26,3.42,1.22,4.4,4.62,4.75c0.2,0.02,0.4,0.05,0.59,0.08c2.43,0.34,2.41,0.34,2.66,2.87
			c0.89,8.85,0.82,17.73,0.44,26.59c-0.46,10.77-1.01,21.55-1.9,32.3c-0.62,7.43-1.9,14.8-2.83,22.2c-0.21,1.67-1,2.47-2.64,2.98
			c-15.74,4.96-30.17,12.43-42.9,23c-19.92,16.55-33.49,37.32-40.82,62.16c-3.12,10.58-5.06,21.37-5.34,32.41
			c-0.9,35.13,10.03,65.9,34.04,91.77c7.71,8.31,16.55,15.28,26.17,21.26c1.56,0.97,3.12,1.19,4.9,0.65
			c6.53-1.99,13.17-3.21,20.04-2.96c9.6,0.35,17.58,4.18,24.19,11.06c0.47,0.49,0.91,1.01,1.34,1.53c0.17,0.21,0.26,0.48,0.51,0.98
			c-1.35,1.01-2.69,2.07-4.1,3.01c-0.24,0.16-0.88-0.05-1.22-0.27c-1.96-1.3-3.86-2.68-5.82-3.99c-0.51-0.34-1.14-0.49-1.94-0.82
			c-0.14,1-0.34,1.81-0.34,2.62c-0.01,3.2,0.06,6.39,0.06,9.59c0,0.4-0.14,0.97-0.42,1.17c-1.37,0.95-2.8,1.82-4.25,2.65
			c-0.17,0.1-0.78-0.2-0.86-0.43c-0.16-0.47-0.13-1.01-0.13-1.52c-0.04-4.8-0.05-9.59-0.13-14.39c-0.03-1.94-2.99-3.48-4.59-2.35
			c-0.43,0.3-0.64,1.17-0.64,1.79c-0.09,6.16-0.12,12.31-0.14,18.47c0,0.71-0.22,1.14-0.91,1.31c-1.04,0.25-2.08,0.52-3.13,0.73
			c-1.29,0.27-1.6-0.58-1.65-1.59c-0.05-1.2-0.02-2.4-0.02-3.59c0.01-4.92,0.03-9.84,0.04-14.76c0-0.32-0.02-0.64-0.06-0.96
			c-0.15-0.97-0.54-1.46-1.69-1.23c-2.24,0.45-2.48,0.56-2.5,2.84c-0.04,4.84,0.01,9.67,0.02,14.51c0,1.51,0,3.01,0,4.57
			c-2.02,0.15-3.62-0.27-5.08-1.12c-0.33-0.19-0.55-0.84-0.56-1.28c-0.05-4.84-0.06-9.68-0.07-14.52c0-0.47,0-0.95,0-1.68
			c-0.71,0.17-1.32,0.19-1.79,0.46c-4.64,2.67-8.29,6.35-10.98,10.97c-0.18,0.32-0.2,1,0.01,1.24c5.72,6.41,12.38,11.18,21.38,11.17
			c6.02-0.01,11.42-2.36,16.25-5.75c7.19-5.05,14.19-10.38,21.24-15.62c7.25-5.38,14.83-10.14,23.48-12.97
			c11.89-3.9,23.66-3.23,35.32,1.01c0.96,0.35,1.47,0.77,1.13,1.91c-0.4,1.33-0.66,2.71-0.95,4.07c-0.23,1.12-0.73,1.29-1.85,0.94
			c-3.08-0.96-6.17-1.97-9.32-2.57c-7.3-1.39-14.28-0.06-20.98,3.04c-5.75,2.67-10.72,6.45-15.49,10.57
			c-6.05,5.22-12.08,10.47-18.23,15.58c-5.36,4.45-11.27,7.98-18.07,9.83c-7.98,2.17-15.71,1.08-23.14-2.19
			c-19.73-8.67-37.66-20.13-53.31-35.02c-24-22.81-39.9-50.26-46.99-82.69c-1.89-8.64-3.11-17.37-3.47-26.21
			c-0.02-0.46-0.15-0.92-0.23-1.38c0-4,0-8,0-12c0.07-0.34,0.2-0.68,0.21-1.02c0.38-8.92,1.51-17.74,3.42-26.46
			c7.02-32.13,21.91-59.99,45.35-83.13c17.48-17.25,37.93-29.47,61.68-36c3-0.82,2.97-0.87,3.05-3.99
			c0.15-5.63,0.34-11.26,0.52-16.89c0.23-6.95,0.45-13.89,0.7-20.84c0.03-0.8-0.23-1.29-0.87-1.79c-3.35-2.63-5.47-6.09-6.59-10.18
			c-1.07-3.9-1.11-7.9-1.12-11.89c0-4.04,0.15-8.07,0.16-12.11c0.03-9.57,6.53-17.69,15.89-19.77c1.39-0.31,2.81-0.49,4.21-0.73
			C269.11,186,271.59,186,274.06,186z"/>
		<path class="st0" d="M266.63,186c-1.4,0.24-2.82,0.42-4.21,0.73c-9.37,2.08-15.86,10.2-15.89,19.77
			c-0.01,4.04-0.17,8.07-0.16,12.11c0,3.99,0.05,7.99,1.12,11.89c1.12,4.09,3.25,7.54,6.59,10.18c0.63,0.5,0.9,0.99,0.87,1.79
			c-0.25,6.95-0.48,13.89-0.7,20.84c-0.18,5.63-0.37,11.26-0.52,16.89c-0.08,3.12-0.05,3.16-3.05,3.99
			c-23.75,6.54-44.2,18.76-61.68,36c-23.44,23.14-38.33,51-45.35,83.13c-1.91,8.72-3.03,17.54-3.42,26.46
			c-0.01,0.34-0.14,0.68-0.21,1.02c0-81.6,0-163.2,0-244.8C182.21,186,224.42,186,266.63,186z"/>
		<path d="M310.28,606.96c-2.44-0.34-4.91-0.58-7.33-1.03c-9.52-1.78-18.21-5.53-25.96-11.38c-1.99-1.5-1.93-1.86,0.37-2.96
			c0.14-0.07,0.29-0.14,0.43-0.21c2.91-1.48,2.91-1.48,5.6,0.24c6.52,4.16,13.68,6.44,21.36,7.1c0.62,0.05,1.69-0.1,1.83-0.45
			c0.24-0.59,0.1-1.52-0.22-2.13c-2.84-5.5-5.75-10.96-8.63-16.44c-0.78-1.49-0.69-2.04,0.56-3.22c0.61-0.57,1.29-1.06,2.06-1.69
			c0.49,0.72,0.99,1.33,1.36,2.02c3.44,6.49,6.87,12.99,10.28,19.5c1.07,2.04,1.9,2.44,4.16,1.88c2.28-0.57,4.56-1.15,6.84-1.74
			c2.14-0.56,2.46-1.35,1.35-3.25c-4.05-6.84-8.1-13.68-12.14-20.52c-0.79-1.34-1.53-2.71-2.34-4.05c-0.35-0.59-0.33-1.06,0.2-1.46
			c0.66-0.5,1.36-0.97,2.03-1.46c0.97-0.7,1.61-0.29,2.13,0.6c4.79,8.17,9.59,16.32,14.36,24.5c1.44,2.47,1.81,2.68,4.23,1.27
			c1.82-1.06,3.49-2.38,5.22-3.59c0.67-0.46,0.78-1.08,0.44-1.78c-0.29-0.61-0.6-1.22-0.96-1.79c-4.86-7.75-9.73-15.5-14.59-23.25
			c-0.21-0.33-0.39-0.68-0.59-1.03c0.99-1.27,2.36-1.71,3.8-1.84c0.36-0.03,0.91,0.41,1.15,0.78c2.4,3.68,4.77,7.38,7.13,11.09
			c2.32,3.64,4.61,7.3,6.91,10.94c0.17,0.27,0.35,0.54,0.55,0.78c0.99,1.17,1.65,1.16,2.55-0.09c1.26-1.75,2.47-3.54,3.73-5.29
			c0.89-1.23,0.83-2.38,0.01-3.64c-3.05-4.64-6.06-9.31-9.06-13.98c-0.53-0.83-0.98-1.71-1.5-2.63c1.8-0.67,3.47-0.39,5.09-0.05
			c0.55,0.12,1.04,0.83,1.4,1.38c1.88,2.83,3.68,5.71,5.58,8.52c0.43,0.64,1.15,1.46,1.77,1.5c1.09,0.07,1.13-1.14,1.34-1.97
			c2.18-8.25,4.19-16.55,6.57-24.74c4.4-15.12,14.17-25.54,28.52-31.79c6.98-3.04,14.35-4.79,21.73-6.51
			c1.12-0.26,2.25-0.54,3.38-0.73c1.03-0.17,1.57,0.29,1.54,1.41c-0.04,1.4-0.07,2.8,0.01,4.2c0.07,1.21-0.49,1.83-1.55,2.23
			c-1.97,0.75-3.93,1.56-5.88,2.38c-0.7,0.29-1.38,0.63-2.04,1.01c-1.33,0.77-1.46,1.38-0.4,2.54c1.32,1.45,2.7,2.83,4.09,4.22
			c1.1,1.1,2.24,2.17,3.36,3.25c1.91,1.84,2.3,4.38,0.99,6.65c-0.42,0.73-0.96,0.42-1.37,0.01c-1.91-1.88-3.79-3.78-5.69-5.67
			c-2.27-2.25-4.53-4.52-6.86-6.7c-0.33-0.31-1.16-0.46-1.55-0.27c-1.2,0.59-2.31,1.37-3.43,2.12c-0.72,0.48-0.66,1.16-0.22,1.78
			c0.34,0.48,0.78,0.9,1.2,1.32c4.56,4.6,9.1,9.22,13.71,13.77c0.86,0.85,0.85,1.54,0.34,2.49c-1.42,2.66-1.98,2.77-4.1,0.67
			c-5.03-4.98-10.06-9.95-15.05-14.97c-0.75-0.75-1.38-0.86-2.13-0.18c-0.94,0.86-1.87,1.73-2.76,2.65c-0.58,0.6-0.57,1.3-0.06,1.96
			c0.32,0.41,0.68,0.79,1.04,1.16c4.88,4.9,9.77,9.79,14.66,14.68c1.39,1.39,1.34,1.92-0.31,3.05c-1.92,1.32-2.33,1.28-3.99-0.37
			c-4.55-4.55-9.1-9.1-13.65-13.66c-1.48-1.48-2.17-1.49-3.42,0.18c-2.62,3.52-2.12,3.67,0.3,6.1c3.5,3.51,6.99,7.03,10.49,10.55
			c0.31,0.31,0.58,0.65,0.87,0.97c-1.63,1.74-4.7,1.96-6.38,0.36c-2.75-2.62-5.41-5.33-8.14-7.97c-1.55-1.49-2.32-1.34-3.09,0.71
			c-3.39,9.04-6.71,18.1-10.11,27.13c-2.72,7.2-6.26,13.92-11.75,19.44c-6.74,6.79-15.02,10.9-24.13,13.34
			c-3.41,0.91-6.97,1.21-10.47,1.79c-0.43,0.07-0.86,0.17-1.29,0.26C313.95,606.96,312.12,606.96,310.28,606.96z"/>
		<path d="M372.77,562.42c0.53-1.51,1.03-2.92,1.53-4.34c0.23-0.64,0.64-0.73,1.31-0.64c6.86,0.94,13.69,1.11,20.38-1.06
			c7.27-2.36,13.49-6.14,17.44-13c2.65-4.6,4.18-9.58,5-14.77c1.4-8.86,1.9-17.79,1.7-26.76c-0.2-9.07-0.5-18.14-0.52-27.21
			c-0.01-6.55,0.12-13.12,0.62-19.65c0.67-8.76,2.49-17.29,6.65-25.17c0.17-0.32,0.31-0.67,0.54-0.93c2.35-2.66,2.32-5.73,1.84-9.02
			c-1.74-11.71-4.74-23.05-9.65-33.83c-13.98-30.71-36.35-52.93-67.31-66.42c-1.17-0.51-2.33-1.05-3.53-1.49
			c-0.77-0.28-1.16-0.75-1.29-1.54c-0.78-4.51-1.76-9-2.34-13.54c-0.79-6.22-1.39-12.46-1.88-18.71c-0.51-6.49-0.93-13-1.13-19.5
			c-0.26-8.59-0.33-17.19-0.34-25.78c0-2.66,0.45-5.33,0.66-7.99c0.08-1,0.57-1.52,1.55-1.63c0.75-0.09,1.5-0.21,2.24-0.37
			c2.66-0.61,3.68-1.64,3.82-4.31c0.25-4.79,0.43-9.58,0.47-14.38c0.01-1.57-0.37-3.17-0.77-4.71c-0.64-2.44-2.2-3.52-5-3.6
			c-1.84-0.06-3.68-0.03-5.51-0.04c-4.4-0.03-7.54-3.23-7.58-7.72c-0.04-4.43,3.02-7.71,7.37-7.75c3.27-0.03,6.57-0.15,9.81,0.21
			c8.38,0.92,16.75,8.91,16.88,18.78c0.07,5.51,0.47,11.04,0.27,16.54c-0.12,3.43-0.87,6.88-1.69,10.23
			c-0.67,2.75-2.36,5.07-4.55,6.91c-1.83,1.55-2.51,3.3-2.18,5.8c0.42,3.19,0.26,6.46,0.38,9.7c0.37,10.1,0.76,20.21,1.14,30.31
			c0.01,0.32,0.02,0.64,0.01,0.96c-0.1,1.93,0.84,3.11,2.56,3.9c5.04,2.31,10.15,4.49,15.04,7.1c14.36,7.67,27.39,17.2,38.89,28.76
			c16.32,16.39,28.2,35.62,36.32,57.24c3.25,8.65,5.75,17.49,7.45,26.57c0.31,1.67,1.1,3.37,2.09,4.77
			c5.16,7.34,8.68,15.35,10.06,24.22c2.07,13.34,0.31,26.15-5.5,38.4c-5.2,10.98-13.69,18.39-24.68,23.16
			c-1.06,0.46-1.36,0.32-1.5-0.82c-0.14-1.19-0.18-2.39-0.29-3.58c-0.14-1.53,0.57-2.53,1.84-3.35c6.34-4.08,11.35-9.42,14.91-16.09
			c3.02-5.66,4.77-11.72,5.63-18.07c1.55-11.44-0.52-22.19-6.14-32.23c-1.36-2.43-3.05-4.68-4.69-6.95
			c-1.1-1.52-1.79-1.61-2.76-0.27c-2.9,4.02-5.51,8.22-6.77,13.1c-0.39,1.49-0.18,1.81,1.39,1.87c2.95,0.11,5.9,0.1,8.86,0.14
			c1.87,0.02,3.53,2.26,2.77,3.97c-0.2,0.45-1.17,0.77-1.79,0.79c-3.35,0.08-6.71,0.08-10.07,0.02c-4.2-0.08-3.98,0.66-4.86,4.08
			c-0.53,2.06-0.05,2.61,2.09,2.73c1.28,0.07,2.56,0.05,3.84,0.05c3.48,0.01,6.96-0.05,10.43,0.04c0.73,0.02,1.97,0.45,2.08,0.9
			c0.26,1.1,0.15,2.37-0.15,3.48c-0.09,0.35-1.24,0.59-1.91,0.6c-3.4,0.06-6.79,0.02-10.19,0.03c-2.16,0.01-4.32,0.03-6.47,0.14
			c-0.43,0.02-1.12,0.43-1.21,0.79c-0.42,1.65-0.76,3.33-0.96,5.01c-0.12,0.96,0.78,1.49,2.28,1.5c4.59,0.05,9.19,0.07,13.78,0.12
			c0.96,0.01,1.92,0.07,2.87,0.09c0.97,0.02,1.44,0.46,1.47,1.47c0.08,2.57-0.51,3.22-3.08,3.22c-5.16,0.01-10.31,0-15.47,0.03
			c-2.35,0.01-2.37,0.04-2.87,2.38c-0.18,0.81-0.27,1.66-0.31,2.49c-0.1,1.9,0.6,2.65,2.52,2.66c4.24,0.03,8.47,0.01,12.71,0.03
			c0.91,0.01,1.82,0.13,2.69,0.2c0.49,2.28-1.1,4.46-3.26,4.48c-3.96,0.04-7.91,0.01-11.87,0.02c-2.4,0-2.94,0.46-3.31,2.81
			c-0.08,0.51-0.09,1.04-0.09,1.55c-0.09,10.08-0.01,20.16-0.31,30.23c-0.29,9.65-0.67,19.33-3.29,28.72
			c-1.67,6.01-3.94,11.74-8.22,16.46c-4.91,5.41-11.14,8.36-18.25,9.44c-9.83,1.5-19.58,0.61-29.25-1.42
			c-0.19-0.04-0.38-0.11-0.57-0.18C373.43,562.72,373.26,562.63,372.77,562.42z"/>
		<path d="M249.32,419.22c11.13,0.02,19.9,8.89,19.88,20.12c-0.02,10.94-8.97,19.72-20.01,19.77c-10.7,0.05-20.15-8.84-19.95-20.45
			C229.43,427.97,238.35,419.2,249.32,419.22z"/>
		<path d="M241.66,366.53c0-10.09,7.84-17.94,17.91-17.94c9.86,0,17.62,7.84,17.87,17.52c0.26,10.21-8.04,18.35-17.92,18.34
			C249.62,384.44,241.66,376.46,241.66,366.53z"/>
		<path d="M287.68,486.69c-0.01,5.48-4.59,10.05-10.09,10.04c-5.91,0-10.41-4.47-10.42-10.36c-0.01-5.62,4.63-10.17,10.36-10.16
			C283.27,476.22,287.69,480.78,287.68,486.69z"/>
		<path d="M305.31,435.38c-5.83,0-10.11-4.11-10.11-9.7c-0.01-5.61,4.41-9.98,10.08-9.97c5.47,0.01,9.84,4.37,9.83,9.8
			C315.08,431.24,310.97,435.38,305.31,435.38z"/>
	</g>
</g>
</svg>
