<?xml version="1.0" encoding="iso-8859-1"?>
<!-- Generator: Adobe Illustrator 19.0.0, SVG Export Plug-In . SVG Version: 6.00 Build 0)  -->
<svg xmlns="http://www.w3.org/2000/svg" xmlns:xlink="http://www.w3.org/1999/xlink" version="1.1" id="Capa_1" x="0px" y="0px" viewBox="0 0 510 510" style="enable-background:new 0 0 510 510;fill:#c40834" xml:space="preserve" width="512" height="512">
<path d="M487.5,67.798c-12.406,0-22.5,10.093-22.5,22.5c0,4.739,1.476,9.137,3.988,12.768l-34.323,43.277  c-4.339-2.442-9.34-3.843-14.664-3.843c-16.542,0-30,13.458-30,30c0,1.577,0.124,3.126,0.36,4.638l-112.836,40.419  c-6.846-9.135-17.756-15.057-30.024-15.057c-4.026,0-7.903,0.645-11.541,1.825l-50.518-94.301  c4.774-5.315,7.684-12.335,7.684-20.024c0-1.331-0.096-2.64-0.265-3.926l71.711-39.115c4.12,4.552,10.071,7.416,16.679,7.416  c12.406,0,22.5-10.093,22.5-22.5s-10.094-22.5-22.5-22.5s-22.5,10.093-22.5,22.5c0,0.388,0.01,0.773,0.029,1.157l-71.603,39.056  C181.701,64.756,172.958,60,163.125,60c-9.082,0-17.228,4.062-22.733,10.458l-96.15-42.171C44.734,26.439,45,24.5,45,22.5  C45,10.093,34.906,0,22.5,0S0,10.093,0,22.5S10.094,45,22.5,45c4.846,0,9.336-1.545,13.013-4.162l98.232,43.084  c-0.406,1.963-0.62,3.996-0.62,6.078c0,16.542,13.458,30,30,30c3.418,0,6.701-0.583,9.764-1.64l50.018,93.367  c-7.9,6.88-12.907,17-12.907,28.274c0,3.175,0.4,6.258,1.146,9.205L70.515,330.068c-5.299-4.703-12.264-7.568-19.89-7.568  c-16.542,0-30,13.458-30,30s13.458,30,30,30c2.82,0,5.546-0.399,8.135-1.13l63.865,82.851c-2.849,4.587-4.5,9.993-4.5,15.779  c0,16.542,13.458,30,30,30s30-13.458,30-30c0-1.014-0.052-2.016-0.151-3.004L280.33,437.76c4.076,4.084,9.708,6.615,15.92,6.615  c12.406,0,22.5-10.093,22.5-22.5s-10.094-22.5-22.5-22.5s-22.5,10.093-22.5,22.5c0,0.776,0.04,1.542,0.116,2.298l-101.094,38.753  C167.35,455.123,158.327,450,148.125,450c-5.295,0-10.27,1.384-14.592,3.801l-61.726-80.077c5.445-5.434,8.818-12.942,8.818-21.224  c0-3.491-0.606-6.842-1.707-9.961l138.788-79.803c6.858,8.966,17.659,14.764,29.794,14.764c20.678,0,37.5-16.822,37.5-37.5  c0-3.035-0.372-5.983-1.055-8.81l112.406-40.265c3.621,4.638,8.571,8.185,14.274,10.067v105.923c-8.729,3.096-15,11.433-15,21.21  c0,12.407,10.094,22.5,22.5,22.5s22.5-10.093,22.5-22.5c0-9.777-6.271-18.114-15-21.21V201.963  C439.487,199.322,450,187.119,450,172.5c0-5.763-1.637-11.149-4.465-15.725l35.608-44.897c2.017,0.595,4.149,0.92,6.357,0.92  c12.406,0,22.5-10.093,22.5-22.5S499.906,67.798,487.5,67.798z M281.25,24.375c4.136,0,7.5,3.364,7.5,7.5s-3.364,7.5-7.5,7.5  s-7.5-3.364-7.5-7.5S277.114,24.375,281.25,24.375z M22.5,30c-4.136,0-7.5-3.364-7.5-7.5s3.364-7.5,7.5-7.5s7.5,3.364,7.5,7.5  S26.636,30,22.5,30z M148.125,90c0-8.271,6.729-15,15-15s15,6.729,15,15s-6.729,15-15,15S148.125,98.271,148.125,90z   M296.25,414.375c4.136,0,7.5,3.364,7.5,7.5s-3.364,7.5-7.5,7.5s-7.5-3.364-7.5-7.5S292.114,414.375,296.25,414.375z M148.125,465  c8.271,0,15,6.729,15,15s-6.729,15-15,15s-15-6.729-15-15S139.854,465,148.125,465z M35.625,352.5c0-8.271,6.729-15,15-15  s15,6.729,15,15s-6.729,15-15,15S35.625,360.771,35.625,352.5z M247.5,262.5c-12.406,0-22.5-10.093-22.5-22.5s10.094-22.5,22.5-22.5  S270,227.593,270,240S259.906,262.5,247.5,262.5z M418.125,335.625c-4.136,0-7.5-3.364-7.5-7.5s3.364-7.5,7.5-7.5s7.5,3.364,7.5,7.5  S422.261,335.625,418.125,335.625z M420,187.5c-8.271,0-15-6.729-15-15s6.729-15,15-15s15,6.729,15,15S428.271,187.5,420,187.5z   M487.5,97.798c-4.136,0-7.5-3.364-7.5-7.5s3.364-7.5,7.5-7.5s7.5,3.364,7.5,7.5S491.636,97.798,487.5,97.798z"/>















</svg>
